<?xml version="1.0" encoding="utf-8"?>
<!-- Generator: Adobe Illustrator 23.0.3, SVG Export Plug-In . SVG Version: 6.00 Build 0)  -->
<svg version="1.1" id="Layer_1" xmlns="http://www.w3.org/2000/svg" xmlns:xlink="http://www.w3.org/1999/xlink" x="0px" y="0px"
	 viewBox="0 0 47 47" style="enable-background:new 0 0 47 47;" xml:space="preserve">
<style type="text/css">
	.st0{fill:#231F20;}
	.st1{fill:#000002;}
</style>
<defs>
      <linearGradient id="Gradient1">
        <stop class="stop1" offset="0%"/>
        <stop class="stop3" offset="100%"/>
      </linearGradient>
      <linearGradient id="Gradient2" x1="0" x2="1" y1="1" y2="0">
        <stop offset="0%" stop-color="#970f37"/>
        <stop offset="100%" stop-color="#4d3b88"/>
      </linearGradient>
      <style type="text/css"><![CDATA[
        #rect1 { fill: url(#Gradient1); }
        .stop1 { stop-color: #970f37; }
        .stop3 { stop-color: #4d3b88; }
      ]]></style>
  </defs>
<path fill="url(#Gradient2)" d="M40.1039886,6.8960109C35.6568909,2.4490259,29.760088,0,23.5,0S11.3431101,2.4490259,6.8960109,6.8960109
	C2.4491405,11.3429956,0,17.2396832,0,23.5s2.4491405,12.1568909,6.8960109,16.6039886C11.3431101,44.5508575,17.2396832,47,23.5,47
	s12.1568909-2.4491425,16.6039886-6.8960114C44.5508575,35.6568909,47,29.7603168,47,23.5
	S44.5508575,11.3429956,40.1039886,6.8960109z M45.5048599,24.4830303
	c-0.2425766,5.4973698-2.5283165,10.6772366-6.4365692,14.5852604c-3.9080238,3.9082527-9.0876617,6.1939926-14.585146,6.4365692
	l-0.245327,0.0107841v-4.2143936c0-0.4068909-0.3309288-0.7378197-0.7378178-0.7378197s-0.7378178,0.3309288-0.7378178,0.7378197
	v4.2143936l-0.245327-0.0107841c-5.4974842-0.2425766-10.677124-2.5283165-14.585146-6.4365692
	c-3.9082518-3.9080238-6.193994-9.0878906-6.4365673-14.5852604l-0.0107862-0.245327H5.69875
	c0.4068894,0,0.7378173-0.3309288,0.7378173-0.7377033S6.1056395,22.7622967,5.69875,22.7622967H1.4843554l0.0107862-0.245327
	c0.2425733-5.4974842,2.5283155-10.6772385,6.4365673-14.5853748c3.9080224-3.9080224,9.0876617-6.1938796,14.585146-6.4364529
	l0.245327-0.0107862V5.69875c0,0.406775,0.3309288,0.7377028,0.7378178,0.7377028S24.2378178,6.105525,24.2378178,5.69875V1.4843554
	l0.245327,0.0107862c5.4974842,0.2425733,10.6771221,2.5284305,14.585146,6.4364529
	c3.9082527,3.9081368,6.1939926,9.0878906,6.4365692,14.5853748l0.0107841,0.245327h-4.2143936
	c-0.4068909,0-0.7378197,0.3309288-0.7378197,0.7377033s0.3309288,0.7377033,0.7378197,0.7377033h4.2143936L45.5048599,24.4830303z
	 M24.2378178,11.6324997v11.4743805l9.5441189,6.6739769c0.3306999,0.2351151,0.4140053,0.6959343,0.1858902,1.027092
	c-0.1432037,0.2074604-0.3632851,0.3265667-0.6042519,0.3265667c-0.1516953,0-0.296505-0.0456676-0.4197426-0.1326466
	l-9.8628845-6.8963547C22.8783054,23.9630013,22.7621822,23.7422295,22.7621822,23.5V11.6324997
	c0-0.4067745,0.3309288-0.7377024,0.7378178-0.7377024S24.2378178,11.2257252,24.2378178,11.6324997z"/>
</svg>
