<?xml version="1.0" encoding="utf-8"?>
<!-- Generator: Adobe Illustrator 23.0.3, SVG Export Plug-In . SVG Version: 6.00 Build 0)  -->
<svg version="1.1" id="Layer_1" xmlns="http://www.w3.org/2000/svg" xmlns:xlink="http://www.w3.org/1999/xlink" x="0px" y="0px"
	 viewBox="0 0 48 47" style="enable-background:new 0 0 48 47;" xml:space="preserve">
<style type="text/css">
	.st0{fill:#231F20;}
	.st1{fill:#000002;}
</style>
<defs>
      <linearGradient id="Gradient1">
        <stop class="stop1" offset="0%"/>
        <stop class="stop3" offset="100%"/>
      </linearGradient>
      <linearGradient id="Gradient2" x1="0" x2="1" y1="1" y2="0">
        <stop offset="0%" stop-color="#970f37"/>
        <stop offset="100%" stop-color="#4d3b88"/>
      </linearGradient>
      <style type="text/css"><![CDATA[
        #rect1 { fill: url(#Gradient1); }
        .stop1 { stop-color: #970f37; }
        .stop3 { stop-color: #4d3b88; }
      ]]></style>
  </defs>
<path fill="url(#Gradient2)" d="M10.3471766,9.2847986c0-0.3939819,0.322382-0.7144117,0.7187662-0.7144117h12.0717239
	c0.3963833,0,0.7188835,0.3204298,0.7188835,0.7144117S23.53405,9.9993258,23.1376667,9.9993258H11.0659428
	C10.6695585,9.9993258,10.3471766,9.6787806,10.3471766,9.2847986z M36.9339409,32.5674477H24.8622169
	c-0.3963852,0-0.7187672,0.3206596-0.7187672,0.7146416s0.322382,0.7144127,0.7187672,0.7144127h12.0717239
	c0.3963852,0,0.7188835-0.3204308,0.7188835-0.7144127S37.3303261,32.5674477,36.9339409,32.5674477z M36.9339409,29.139246
	H24.8622169c-0.3963852,0-0.7187672,0.3206615-0.7187672,0.7146435s0.322382,0.7146435,0.7187672,0.7146435h12.0717239
	c0.3963852,0,0.7188835-0.3206615,0.7188835-0.7146435S37.3303261,29.139246,36.9339409,29.139246z M48,22.1404953v15.4266739
	c0,2.7569466-2.2565613,4.9999504-5.0301971,4.9999504h-6.957489l-3.9965172,3.9720726
	C31.7179241,46.8359566,31.3215408,46.9995346,30.8997135,47c-0.000351,0-0.0005836,0-0.0009346,0
	c-0.4222965,0-0.8194962-0.1638107-1.1185341-0.4608078l-3.9962845-3.9720726h-6.9576073
	c-2.773634,0-5.0300798-2.2430038-5.0300798-4.9999504V27.2238617l-1.8085871-1.797863H5.0300798
	C2.2564452,25.4259987,0,23.1832256,0,20.4263935V4.9996052C0,2.2427745,2.2564452,0,5.0300798,0h24.1434517
	c2.773634,0,5.0301971,2.2427745,5.0301971,4.9996052v12.1411686h8.7660751C45.7434387,17.1407738,48,19.3836651,48,22.1404953z
	 M17.1018047,28.4888744l4.5190773-4.4916973h7.5526485c1.9809837,0,3.5925484-1.6019173,3.5925484-3.5707836V4.9996052
	c0-1.9688666-1.6115646-3.5707819-3.5925484-3.5707819H5.0300798c-1.9808674,0-3.5924306,1.6019154-3.5924306,3.5707819v15.4267883
	c0,1.9688663,1.6115632,3.5707836,3.5924306,3.5707836h7.5527649L17.1018047,28.4888744z M46.5623512,22.1404953
	c0-1.9688663-1.6116791-3.5707817-3.5925484-3.5707817h-8.7660751v1.8566799c0,2.7568321-2.2565632,4.9996052-5.0301971,4.9996052
	h-6.9574909l-3.9965172,3.9724216c-0.2978706,0.2967625-0.6942539,0.4603424-1.1159668,0.4608059c-0.000351,0-0.0007,0-0.0010509,0
	c-0.4221783,0-0.8193798-0.1638107-1.1184177-0.4608059l-0.750164-0.7459679v8.9147167
	c0,1.9689827,1.6115627,3.5706635,3.5924301,3.5706635h7.5527649l4.518961,4.4918137l4.5190773-4.4918137h7.5526466
	c1.9808693,0,3.5925484-1.6016808,3.5925484-3.5706635V22.1404953z M23.8565502,16.141201
	c0-0.3939819-0.3225002-0.7145281-0.7188835-0.7145281H11.0659428c-0.3963842,0-0.7187662,0.3205462-0.7187662,0.7145281
	s0.322382,0.7144108,0.7187662,0.7144108h12.0717239C23.53405,16.8556118,23.8565502,16.535183,23.8565502,16.141201z
	 M11.0659428,13.4274111h12.0717239c0.3963833,0,0.7188835-0.3204288,0.7188835-0.7144117
	c0-0.3939819-0.3225002-0.7144108-0.7188835-0.7144108H11.0659428c-0.3963842,0-0.7187662,0.3204288-0.7187662,0.7144108
	C10.3471766,13.1069822,10.6695585,13.4274111,11.0659428,13.4274111z"/>
</svg>
