<?xml version="1.0" encoding="utf-8"?>
<!-- Generator: Adobe Illustrator 23.0.3, SVG Export Plug-In . SVG Version: 6.00 Build 0)  -->
<svg version="1.1" id="Layer_1" xmlns="http://www.w3.org/2000/svg" xmlns:xlink="http://www.w3.org/1999/xlink" x="0px" y="0px"
	 viewBox="0 0 44 49" style="enable-background:new 0 0 44 49;" xml:space="preserve">
<style type="text/css">
	.st0{fill:#231F20;}
	.st1{fill:#000002;}
</style>
<defs>
      <linearGradient id="Gradient1">
        <stop class="stop1" offset="0%"/>
        <stop class="stop3" offset="100%"/>
      </linearGradient>
      <linearGradient id="Gradient2" x1="0" x2="1" y1="1" y2="0">
        <stop offset="0%" stop-color="#970f37"/>
        <stop offset="100%" stop-color="#4d3b88"/>
      </linearGradient>
      <style type="text/css"><![CDATA[
        #rect1 { fill: url(#Gradient1); }
        .stop1 { stop-color: #970f37; }
        .stop3 { stop-color: #4d3b88; }
      ]]></style>
  </defs>
<path fill="url(#Gradient2)" d="M39.1889343,32.5090485l-10.0785561-4.1698742c-0.1764355-0.0730038-0.3741512-0.0688877-0.5473347,0.0116119
	c-0.1734104,0.0804977-0.3080215,0.2301197-0.3725243,0.4150486l-2.9666538,8.4838219l-0.9761887-2.9027138l0.8626022-2.1816368
	c0.0885677-0.2235985,0.0635624-0.478138-0.0666142-0.6787796c-0.1301613-0.2006397-0.3484459-0.3210201-0.5821533-0.3210201
	h-4.9232388c-0.2337055,0-0.4517632,0.1203804-0.5821667,0.3210201c-0.1299477,0.2003918-0.15518,0.4551811-0.0665989,0.6787796
	l0.8628292,2.1814003l-0.9761887,2.9027138l-2.9666519-8.4838219c-0.0647459-0.1849289-0.1991148-0.3345642-0.3725262-0.4150639
	c-0.1731825-0.0804977-0.3708992-0.0846004-0.547348-0.0115967L4.8108363,32.508812C1.8883458,33.7179565,0,36.6030273,0,39.8589096
	v8.4158936C0,48.6753502,0.3138708,49,0.701117,49h42.597538C43.686142,49,43.9997711,48.6753502,44,48.2750397v-8.4158936
	C44,36.6035004,42.1116676,33.7181931,39.1889343,32.5090485z M42.5977669,47.5496101H1.4022341v-7.6907005
	c0-2.6595345,1.5422235-5.015934,3.9293051-6.0034142l9.4059401-3.8913879l3.3924837,9.7009354
	c0.1009483,0.28862,0.3582611,0.4774132,0.6637154,0.4783859c0.2968121-0.0019302,0.5602016-0.19701,0.6578827-0.4870911
	l1.712368-5.0923195c0.0558453-0.1670303,0.0511799-0.3493042-0.0135651-0.5129547l-0.5679035-1.4354019h2.8350925
	L22.8498783,34.0513c-0.0649738,0.163414-0.0694084,0.3459244-0.0133228,0.5127182l1.7121258,5.0923195
	c0.0976963,0.290081,0.3608437,0.4851608,0.6578827,0.4870911c0.2968102-0.0019302,0.562767-0.1897659,0.6637306-0.4783859
	l3.3924694-9.7009354l9.4054832,3.8913879c2.3870659,0.9874802,3.9295197,3.3441162,3.9295197,6.0034142V47.5496101z
	 M13.6921225,21.1981869c0.5157814,1.0824661,1.9149771,3.8628693,3.2608957,5.162178
	c0.4872684,0.4706554,1.1271629,0.8704796,1.9014263,1.1883564c1.001894,0.4111824,2.0601158,0.6195564,3.1454411,0.6195564
	c1.0850964,0,2.1433201-0.208374,3.1452122-0.6202793c0.7742653-0.3176422,1.4139175-0.7174644,1.9014263-1.1881218
	c1.3461475-1.2995434,2.7453442-4.0799465,3.2611389-5.1624126c0.8759251-0.0439968,2.6724243-0.5272255,3.449955-3.6027699
	c0.3860893-1.5272751,0.2982101-2.7545385-0.2617493-3.6482267c-0.3052139-0.4878159-0.6898918-0.7749901-1.0079689-0.9417858
	c0.0004692-0.0251408,0.0006981-0.0512409,0.0009422-0.0780792c0.1215172-0.437047,0.5527115-2.1081448,0.5606537-3.8505497
	c0-0.0012102,0-0.002656,0-0.0038652c0-0.0009594,0-0.0021687,0-0.0031433c0-0.0012093,0-0.0024195,0-0.0033779
	c0-0.0002508,0-0.0002508,0-0.0002508c0-0.0007229,0-0.0014467,0-0.0019331c0-0.0002365,0-0.0007229,0-0.0009594
	c0-0.0009737,0-0.0019321,0-0.002655c0-0.0002508,0-0.0004873,0-0.0004873c0-0.0002508,0-0.0004864,0-0.0007229
	c0.0023422-0.7612104-0.0782967-1.4460382-0.2390823-2.0351415c-0.3676186-1.3450022-1.8663635-3.9363601-4.3174782-5.1766815
	c-1.2902889-0.8310858-3.3618584-1.8161312-5.9599648-1.8458755c-0.0018692,0-0.0039654,0-0.0063057,0h-0.0011692
	c-0.0016403,0-0.0032673,0-0.0049076,0L22.3424988,0c-0.0023384,0-0.0046635,0-0.0070038,0h-0.0002422c-0.0004559,0,0,0-0.0002289,0
	c-3.9360657,0-5.3467159,1.3594906-5.849659,2.2737308c-0.206831-0.0389214-0.4508228-0.0674558-0.7214432-0.0674558h-0.0002432
	c-0.0002279,0-0.0002279,0-0.0002279,0s-0.000699,0-0.0011702,0h-0.0002279c0,0,0,0-0.0002422,0
	c-0.0002279,0-0.0004568,0-0.000699,0c-1.1035547,0.0007377-2.6710262,0.4624388-3.8825464,2.6539745
	c-0.0004711,0.0007229-0.0009422,0.0014606-0.0014124,0.0021834c-0.001626,0.0031428-0.0032663,0.0062852-0.0051355,0.009428
	c-0.0013981,0.0026555-0.0030384,0.0055623-0.0046787,0.0082178C11.8666391,4.881525,11.8575249,4.898212,11.857296,4.898684
	c-0.0002422,0-0.0002422,0-0.0002422,0c-0.0004559,0.0009737-0.0025673,0.0048394-0.0025673,0.0048394
	c-0.0004711,0.0007229-0.000699,0.0012097-0.0011702,0.0019326c-1.8509445,3.3982615-0.7728662,5.7201056-0.2799788,6.4987264
	c-0.0588827,0.6652346-0.0672989,1.2204914-0.0616932,1.6014729c-0.318078,0.1667957-0.7025146,0.45397-1.0079689,0.9417858
	c-0.5597305,0.8934374-0.6478405,2.1209526-0.2617493,3.6482124C11.0196991,20.6712132,12.8161831,21.1541901,13.6921225,21.1981869
	z M13.0756073,5.6156611c0.0002279-0.0004721,0.0004702-0.0009589,0.000927-0.0014458
	c0.0004711-0.0009589,0.0009413-0.0016966,0.0014124-0.0026555c0.0013981-0.002656,0.0027952-0.0050755,0.0042076-0.0077314
	c0.000927-0.0016966,0.0018682-0.0031424,0.0027962-0.0048394c0-0.000236,0.0002422-0.000236,0.0002422-0.0004869
	c0.0004568-0.0007229,0.000927-0.0014458,0.0013981-0.0021687c0.7064943-1.2867379,1.6067266-1.9394169,2.6756897-1.9399037
	c0.0004711,0,0.0004711,0,0.0009422,0h0.0002279c0.468111,0,0.8088551,0.1322265,0.8576965,0.1522923
	c0.0320225,0.0147393,0.065443,0.0268376,0.0997925,0.0367377c0.0738602,0.0210395,0.1484051,0.0292575,0.2229633,0.024905
	c0.1245708-0.006772,0.2421227-0.0478623,0.3428421-0.1150675c0.0635757-0.0423002,0.1205902-0.095238,0.1687317-0.1578546
	c0.0628777-0.0819445,0.1093788-0.1788793,0.1336861-0.2859647c0.0042076-0.018369,0.007473-0.0367377,0.0105114-0.0551066
	c0.020813-0.0882444,0.4662418-1.716054,4.404192-1.8026017c0.0013981,0,0.0023384,0,0.0037365,0
	c0.1065693-0.0021689,0.215704-0.0033787,0.3276501-0.0033787l0.1771488,0.0019329c0.0016403,0,0.0037365,0,0.0056057,0
	c2.2945194,0.0261,4.1293468,0.909637,5.263998,1.645957c0.0268726,0.017395,0.0546741,0.0328722,0.0834312,0.0464017
	c1.8172951,0.918829,3.1318893,2.8925638,3.5354977,4.0780144c0.0231361,0.0681791,0.0434628,0.1336875,0.0605221,0.1962891
	c0.0084171,0.0307035,0.0163612,0.0618935,0.0243073,0.0935559c0.1086788,0.4392309,0.1633682,0.9570122,0.1617279,1.5407896
	c0,0.0007381,0,0.001461,0,0.0021839c0,0.0009584,0,0.0016966,0,0.0024195c0,0.0002356,0,0.0004721,0,0.0004721
	c0,0.0004873,0,0.0007381,0,0.0009737c0,0.0004873,0,0.0009737,0,0.0014458c0,0.0002508,0,0.0002508,0,0.0002508
	c0,0.0002365,0,0.0004721,0,0.0004721c0,0.0007381,0,0.001461,0,0.0021839c0,0.0002356,0,0.0002356,0,0.0002356
	c0,0.0007238,0,0.0016975,0,0.0024204c0,0.0012093,0,0.0024195,0,0.0033789
	c-0.0023403,0.5207024-0.0493126,1.0416269-0.1142864,1.5178461c-0.6277256-0.4919319-2.0556641-0.7924004-5.2436409-1.4286432
	c-0.8843422-0.1764593-1.8862495-0.3766136-2.9344158-0.5985308c-0.0088863-0.0019331-0.0175304-0.0036154-0.0264034-0.005312
	c-0.6010971-0.1124115-1.1058941-0.2596283-1.5001583-0.4375334c-0.0128517-0.0057983-0.0254765-0.0108738-0.0387993-0.0159645
	c-2.7460423-1.0437961-3.9767342-2.9017406-3.9872456-2.9179406c-0.1313457-0.2059531-0.3526707-0.3258452-0.585207-0.3258452
	c-0.0451031,0-0.0906773,0.0043526-0.1364803,0.0140166c-0.2792797,0.0570393-0.4975662,0.2830729-0.5522537,0.5721803
	c-0.1028328,0.5441327-0.5492039,2.1564798-1.3683434,3.0714426c-0.8813028,0.9845734-1.9603233,1.5499811-2.5702915,1.8141985
	C12.2419748,9.6122179,11.7862463,7.9817381,13.0756073,5.6156611z M11.6656561,14.7596569
	c0.2687674-0.4484081,0.6772814-0.5407543,0.6819601-0.5422001c0.3599014-0.0618782,0.6137056-0.4003086,0.5833225-0.7764511
	c-0.000699-0.0077314-0.053277-0.688694,0.0214968-1.6969471c0.7034559-0.2840319,2.09027-0.9621029,3.2365885-2.2427912
	c0.6462002-0.721817,1.0769234-1.6764097,1.3452206-2.4458385c0.7450504,0.7445235,1.9708366,1.720407,3.7523708,2.4008822
	c0.4872818,0.2173138,1.0850964,0.3937731,1.7782688,0.5240669c0.0013981,0.0002365,0.0028095,0.0004873,0.0039806,0.0007229
	c1.0605469,0.2245731,2.0666485,0.4252148,2.9544983,0.602397c2.1122379,0.4215851,4.2964535,0.8574219,4.6554127,1.1540241
	c0.2968121,0.2915268,0.3954353,0.9038391,0.4080582,1.1066494c-0.0016403,0.3715382-0.0191708,0.5949011-0.0191708,0.5963621
	c-0.0308399,0.3766146,0.2100983,0.7121382,0.5704842,0.7742672c0.0175323,0.0036154,0.4260464,0.0959616,0.6947994,0.5443687
	c0.318306,0.5313263,0.3419151,1.3853693,0.0677834,2.469533c-0.5550518,2.1951656-1.6394482,2.5229588-2.2365646,2.5229588
	c-0.0895081,0-0.1467648-0.0087051-0.148634-0.0087051c0,0,0,0,0.000227,0
	c-0.3168945-0.0662308-0.6384811,0.1007996-0.7754326,0.4048977c-0.0165901,0.0372238-1.6943665,3.7463703-3.1505909,5.1525135
	c-0.3592033,0.3466492-0.8511486,0.6495361-1.4618301,0.9002094c-0.8366566,0.3435059-1.7207699,0.5175457-2.6282463,0.5175457
	c-0.9074783,0-1.7915916-0.1742764-2.6282635-0.5175457c-0.6108952-0.2509098-1.1026115-0.5537968-1.461586-0.9004459
	c-1.4562244-1.4059067-3.1340017-5.1152878-3.1505909-5.1525135c-0.1163826-0.258419-0.3748655-0.4172325-0.6457291-0.4172325
	c-0.0397263,0-0.0799227,0.0033932-0.1205902,0.0113621c-0.0004711,0-0.0600672,0.0104008-0.1582193,0.0104008
	c-0.5968876,0-1.6815138-0.3275414-2.2367935-2.5229568C11.3237419,16.1450272,11.3473492,15.2909832,11.6656561,14.7596569z
	 M37.9168777,39.3807602h-7.8471279c-0.3872471,0-0.7011166,0.3246498-0.7011166,0.725193v4.9966087
	c0,0.4005432,0.3138695,0.725193,0.7011166,0.725193h7.8471279c0.3872604,0,0.7011147-0.3248825,0.7011147-0.725193v-4.9966087
	C38.6179924,39.70541,38.3041382,39.3807602,37.9168777,39.3807602z M37.2157593,44.3773651h-6.4448929v-3.5462151h6.4448929
	V44.3773651z"/>
</svg>
