<?xml version="1.0" encoding="utf-8"?>
<!-- Generator: Adobe Illustrator 23.0.3, SVG Export Plug-In . SVG Version: 6.00 Build 0)  -->
<svg version="1.1" id="Layer_1" xmlns="http://www.w3.org/2000/svg" xmlns:xlink="http://www.w3.org/1999/xlink" x="0px" y="0px"
	 viewBox="0 0 58 41" style="enable-background:new 0 0 58 41;" xml:space="preserve">
<style type="text/css">
	.st0{fill:#231F20;}
	.st1{fill:#000002;}
</style>
<defs>
      <linearGradient id="Gradient1">
        <stop class="stop1" offset="0%"/>
        <stop class="stop3" offset="100%"/>
      </linearGradient>
      <linearGradient id="Gradient2" x1="0" x2="1" y1="1" y2="0">
        <stop offset="0%" stop-color="#970f37"/>
        <stop offset="100%" stop-color="#4d3b88"/>
      </linearGradient>
      <style type="text/css"><![CDATA[
        #rect1 { fill: url(#Gradient1); }
        .stop1 { stop-color: #970f37; }
        .stop3 { stop-color: #4d3b88; }
      ]]></style>
  </defs>
<path fill="url(#Gradient2)" d="M57.6525726,13.8341112L29.2817879,0.0643687c-0.1766796-0.085825-0.3848515-0.085825-0.5615311,0
	L0.3474291,13.8341112C0.1345546,13.9374189,0,14.1488028,0,14.3800535c0,0.015583,0.0021471,0.0307817,0.0033485,0.0461655
	c-0.000294,0.0075998-0.0023261,0.0147142-0.0023261,0.0223751v18.1411552c0,0.3371429,0.2811742,0.6103096,0.6281943,0.6103096
	s0.6281943-0.2731667,0.6281943-0.6103096V15.3676243l11.4199667,5.5423164V32.656105
	c0,0.089798,0.0198355,0.1748276,0.0556211,0.2515144C13.3012781,37.4619064,20.6130333,41,29.5504875,41
	c8.9394989,0,16.2522774-3.5392876,16.8174896-8.0947647c0.0351715-0.0760918,0.0545998-0.1603279,0.0545998-0.2491302V20.376503
	l11.2299957-5.4505072C57.8654442,14.8226881,58,14.6113043,58,14.3800535S57.8654442,13.9374189,57.6525726,13.8341112z
	 M45.1661873,32.4631958c-0.0159492,0.0462914-0.0261765,0.0951614-0.0302658,0.1458244
	c-0.3149185,3.9537086-7.3064384,7.1703568-15.585434,7.1703568c-8.2785854,0-15.2703142-3.2166481-15.585639-7.1703568
	c-0.0040894-0.0516548-0.0147228-0.1013222-0.0310822-0.1482086V21.5196934l14.7864904,7.1761436
	c0.0883408,0.0429134,0.1846561,0.0643692,0.2807655,0.0643692c0.0961113,0,0.1924248-0.0214558,0.2807655-0.0643692
	l15.8843994-7.7095337V32.4631958z M29.0010223,27.4676666L2.0338607,14.3800535L29.0010223,1.29254l26.9651184,13.0875139
	L29.0010223,27.4676666z"/>
</svg>
