<?xml version="1.0" encoding="utf-8"?>
<!-- Generator: Adobe Illustrator 23.0.3, SVG Export Plug-In . SVG Version: 6.00 Build 0)  -->
<svg version="1.1" id="Layer_1" xmlns="http://www.w3.org/2000/svg" xmlns:xlink="http://www.w3.org/1999/xlink" x="0px" y="0px"
	 viewBox="0 0 51 44" style="enable-background:new 0 0 51 44;" xml:space="preserve">
<style type="text/css">
	.st0{fill:#231F20;}
	.st1{fill:#000002;}
</style>
<defs>
      <linearGradient id="Gradient1">
        <stop class="stop1" offset="0%"/>
        <stop class="stop3" offset="100%"/>
      </linearGradient>
      <linearGradient id="Gradient2" x1="0" x2="1" y1="1" y2="0">
        <stop offset="0%" stop-color="#970f37"/>
        <stop offset="100%" stop-color="#4d3b88"/>
      </linearGradient>
      <style type="text/css"><![CDATA[
        #rect1 { fill: url(#Gradient1); }
        .stop1 { stop-color: #970f37; }
        .stop3 { stop-color: #4d3b88; }
      ]]></style>
  </defs>
<path fill="url(#Gradient2)" d="M35.9661369,8.4586601c-1.6132774-2.5465369-4.3354149-4.0668368-7.2817955-4.0668368
	c-0.3874569,0-0.7025833,0.3248482-0.7025833,0.724256v8.2358122c0,0.2659483,0.1410275,0.5100002,0.3679619,0.6369457
	c0.2196751,0.1223726,0.508585,0.1107311,0.7184467-0.0302114l6.6933537-4.4970112
	c0.1550102-0.1042175,0.2659225-0.2712145,0.3041039-0.4578915c0.0385818-0.1894484,0.0032234-0.3830547-0.0993538-0.545063
	H35.9661369z M29.3870583,12.0152197V5.8663893l0.3461819,0.051693c1.7083263,0.2538915,3.2780437,1.1307321,4.4197063,2.4690666
	l0.2309685,0.2706604L29.3870583,12.0152197z M33.237011,13.1332006l-7.1188564,4.7829161V9.1574163
	c0-0.3994083-0.3151264-0.7243948-0.7025833-0.7243948c-2.3950443,0-4.7381954,0.8542509-6.5977669,2.4053164
	c-2.4773216,2.0667486-3.8982153,5.1336803-3.8982153,8.4145899c0,5.9660339,4.7084837,10.8199062,10.4959822,10.8199062
	s10.495985-4.8538723,10.495985-10.8199062c0.000267-2.1076317-0.5884438-4.150959-1.7024117-5.9089355
	C33.9974022,13.0094433,33.5608749,12.9149265,33.237011,13.1332006z M20.5461636,11.3372517
	c1.1657276-0.7672176,2.4543324-1.2368898,3.8301888-1.3961258l0.3366375-0.038805v7.3017368l-4.4522419-5.6788816
	L20.5461636,11.3372517z M25.4157066,28.6237679c-5.012722,0-9.0908184-4.2037601-9.0908184-9.3709793
	c0-2.4748859,0.9252148-4.8070297,2.605175-6.5666695l0.2380924-0.2493181l5.7009182,7.2712469
	c0.2274723,0.2899246,0.6272964,0.3553371,0.9301891,0.1514759l7.5996132-5.106102l0.151783,0.3130684
	c0.6252785,1.2888603,0.9557304,2.7364006,0.9557304,4.1862984C34.5063896,24.4200077,30.4282932,28.6237679,25.4157066,28.6237679z
	 M47.5198936,0h-44.03965C1.5612491,0,0,1.6094114,0,3.5876029v27.910183c0,1.9781933,1.5612491,3.5877399,3.4802427,3.5877399
	h30.5363808l0.3323364-0.0077591l0.0415421,0.0429611l8.197197,8.4499283C42.8522758,43.8433952,43.2140541,44,43.5802689,44
	c0.1754417,0,0.3698425-0.03936,0.5622253-0.1133652c0.5128899-0.2164726,0.8468361-0.7383919,0.8468361-1.3282166v-7.4509926
	h2.5305634C49.4388847,35.1074257,51,33.4981499,51,31.5199604V3.5876029C51,1.6094114,49.4388847,0,47.5198936,0z
	 M49.6340904,31.4977856c0,1.1957302-0.9436302,2.1683331-2.1035767,2.1683331h-3.2242699
	c-0.3824806,0-0.6935768,0.3206902-0.6935768,0.7151108v8.2442627l-8.4775009-8.7390213
	c-0.1115875-0.1150246-0.254631-0.1851501-0.4138069-0.203167c-0.1000252-0.0282707-0.1632118-0.0390816-0.2229004-0.0390816
	H3.4802427c-1.1599464,0-2.1035795-0.9726028-2.1035795-2.1683331V3.5876029c0-1.195729,0.943633-2.1684716,2.1035795-2.1684716
	h44.0502701c1.1599464,0,2.1035767,0.9727426,2.1035767,2.1684716V31.4977856z"/>
</svg>
