<?xml version="1.0" encoding="utf-8"?>
<!-- Generator: Adobe Illustrator 23.0.3, SVG Export Plug-In . SVG Version: 6.00 Build 0)  -->
<svg version="1.1" id="Layer_1" xmlns="http://www.w3.org/2000/svg" xmlns:xlink="http://www.w3.org/1999/xlink" x="0px" y="0px"
	 viewBox="0 0 24 36" style="enable-background:new 0 0 24 36;" xml:space="preserve">
<style type="text/css">
	.st0{fill:#231F20;}
	.st1{fill:#000002;}
</style>

<path fill="#384ea5" d="M12,5.5275807c-3.4903202,0-6.3299918,2.7683396-6.3299918,6.1709857S8.5096798,17.8695564,12,17.8695564
	s6.3299961-2.7682705,6.3299961-6.17099C18.3299961,8.2958508,15.4903202,5.5275807,12,5.5275807z M12,16.4352932
	c-2.6791611,0-4.8587723-2.1248608-4.8587723-4.7367268c0-2.6118622,2.1796074-4.7367229,4.8587723-4.7367229
	s4.8587761,2.1248608,4.8587761,4.7367229C16.8587761,14.3104324,14.6791649,16.4352932,12,16.4352932z M12,0
	C5.3831906,0,0,5.247972,0,11.6985664c0,6.1997471,10.9121828,23.2426605,11.3767204,23.9651718
	C11.5111856,35.8729973,11.7467299,36,12,36s0.4888144-0.1270027,0.6232834-0.3362617
	C13.087821,34.941227,24,17.8983135,24,11.6985664C24,5.247972,18.6168098,0,12,0z M12,33.9141502
	c-0.9854221-1.5778313-2.9961367-4.8608589-4.9872122-8.493988c-3.6253064-6.615324-5.5415688-11.3601532-5.5415688-13.7215958
	C1.4712192,6.0388212,6.1944222,1.434263,12,1.434263s10.52878,4.604558,10.52878,10.2643032
	c0,2.3613729-1.9162617,7.1062717-5.5415668,13.7215958C14.9960651,29.0532913,12.9854221,32.3363914,12,33.9141502z"/>
</svg>
