<?xml version="1.0" encoding="utf-8"?>
<!-- Generator: Adobe Illustrator 23.0.3, SVG Export Plug-In . SVG Version: 6.00 Build 0)  -->
<svg version="1.1" id="Layer_1" xmlns="http://www.w3.org/2000/svg" xmlns:xlink="http://www.w3.org/1999/xlink" x="0px" y="0px"
	 viewBox="0 0 30 30" style="enable-background:new 0 0 30 30;" xml:space="preserve">
<style type="text/css">
	.st0{fill:#231F20;}
	.st1{fill:#000002;}
</style>
<path fill="#344aa3" d="M24.8275452,8.331912L11.9859524,21.1734066l-4.4024-4.4023666l1.0103035-1.0102949l3.3920965,3.3920698
	L23.8172436,7.3216166L24.8275452,8.331912z M30,15c0,8.2712097-6.7288418,15-14.9998837,15S0,23.2712097,0,15
	C0,6.729022,6.729074,0,15.0001163,0S30,6.729022,30,15z M28.571064,15c0-7.4830222-6.0878677-13.5710745-13.5709476-13.5710745
	S1.428937,7.5169778,1.428937,15c0,7.4832554,6.088099,13.5710735,13.5711794,13.5710735S28.571064,22.4832554,28.571064,15z"/>
</svg>
