<?xml version="1.0" encoding="utf-8"?>
<!-- Generator: Adobe Illustrator 23.0.3, SVG Export Plug-In . SVG Version: 6.00 Build 0)  -->
<svg version="1.1" id="Layer_1" xmlns="http://www.w3.org/2000/svg" xmlns:xlink="http://www.w3.org/1999/xlink" x="0px" y="0px"
	 viewBox="0 0 126 123" style="enable-background:new 0 0 126 123;" xml:space="preserve">
<style type="text/css">
	.st0{fill:#231F20;}
	.st1{fill:#000002;}
</style>
<path class="st1" d="M0.0060555,50.948082c0.2055186,13.4023132,5.6228552,25.9222488,15.2541866,35.2539749
	c9.6314144,9.3310776,22.3456879,14.3425369,35.7391891,14.1520996
	c11.5076447-0.1763535,22.3652611-4.1829834,31.1161308-11.3919373l34.6409531,33.5632706
	C117.0704269,122.8297272,117.4914932,123,117.9287643,123c0.0087204,0,0.016777,0,0.0255814,0
	c0.4466476-0.0073929,0.8724823-0.1904831,1.1836853-0.5115204l6.3867798-6.5796661
	c0.6474838-0.6669617,0.631279-1.7317352-0.0363464-2.3791885L90.7363205,79.859993
	c14.6148529-19.8769798,12.6725845-48.0599403-5.5359268-65.7024155C75.5690613,4.8271623,62.8709068-0.1903409,49.4612885,0.005525
	C36.0456696,0.2114553,23.5132256,5.6234016,14.1728601,15.2451916C4.8324947,24.8670235-0.1994632,37.5464668,0.0060555,50.948082z
	 M84.7039108,86.783577l4.0422745-4.1641235l33.1885071,32.1546326l-4.0422745,4.1647797L84.7039108,86.783577z
	 M3.3739622,50.8962822C3.181931,38.3931503,7.8763747,26.5637608,16.5902328,17.5874081
	C25.765461,8.136549,37.9967384,3.3868823,50.2373924,3.3868823c11.7603683,0,23.5287971,4.380816,32.6178398,13.1868954
	c18.5493088,17.9716015,19.004097,47.668251,1.014679,66.198494c-8.7145157,8.9763489-20.4067917,14.025528-32.9223747,14.2166672
	c-12.5048103,0.1991959-24.3567123-4.4979706-33.3421288-13.2037735
	C8.6201563,75.0793533,3.5659935,63.3993721,3.3739622,50.8962822z M60.3323936,13.7705698
	c0.1454849-0.9173412,1.0064583-1.5453196,1.9273872-1.3972292c0.8085022,0.1278801,19.8886795,3.4123316,27.2126694,26.829483
	c0.2769089,0.8870659-0.2176056,1.8306961-1.1055527,2.1073265c-0.1670303,0.0524979-0.3368607,0.0773926-0.5032272,0.0773926
	c-0.7168884,0-1.3818054-0.4610329-1.6068115-1.1818924c-6.6792374-21.356287-23.8036499-24.3910599-24.5292549-24.5101891
	C60.8107033,15.548768,60.1868286,14.687253,60.3323936,13.7705698z M26.377821,47.9469948
	c-0.4957447,0.4758644-0.6534805,1.2047729-0.3967266,1.8421173c0.2565899,0.6373863,0.8751202,1.0546722,1.5629768,1.0546722
	h2.8531647v22.0892601c-0.000658,0.9288025,0.7532406,1.6826096,1.6836243,1.6826096h36.2989998
	c0.9303818,0,1.6842804-0.7531509,1.6842804-1.6826096V50.8437843h2.8531647c0.6878586,0,1.3063049-0.4172859,1.5630646-1.0546722
	c0.255928-0.6373444,0.0990143-1.3662529-0.3968964-1.8421173l-22.686573-21.7338867
	c-0.6521683-0.6245689-1.6795959-0.6245689-2.3317604,0L26.377821,47.9469948z M31.7332306,47.478569l18.4967613-17.7205257
	l18.4968376,17.7198696h-0.3477097c-0.9303055,0-1.6842804,0.7531052-1.6842804,1.6826057v22.0899239H33.7651443V49.1611748
	c0-0.9294586-0.7538986-1.6826057-1.6842842-1.6826057H31.7332306z"/>
</svg>
